<svg xmlns="http://www.w3.org/2000/svg" width="28.906" height="20.788" viewBox="0 0 28.906 20.788">
    <path d="M3838.131,127.211a12.234,12.234,0,0,0-6.954-2.6l-.347.4a16.48,16.48,0,0,1,6.163,3.143,20.168,20.168,0,0,0-7.45-2.376,20.94,20.94,0,0,0-5,.049,2.406,2.406,0,0,0-.42.05,18.575,18.575,0,0,0-5.618,1.559c-.916.421-1.46.718-1.46.718a16.7,16.7,0,0,1,6.508-3.242l-.247-.3a12.231,12.231,0,0,0-6.954,2.6,33.144,33.144,0,0,0-3.564,14.428s2.079,3.589,7.548,3.762c0,0,.916-1.114,1.658-2.054a7.7,7.7,0,0,1-4.331-2.92s.248.173.693.42a.355.355,0,0,0,.1.075c.075.049.149.074.223.123a14.449,14.449,0,0,0,1.807.842,20.72,20.72,0,0,0,3.638,1.064,17.352,17.352,0,0,0,6.409.025,16.343,16.343,0,0,0,3.589-1.064,14.16,14.16,0,0,0,2.846-1.461,7.809,7.809,0,0,1-4.48,2.945c.743.941,1.634,2.005,1.634,2.005,5.469-.173,7.573-3.762,7.573-3.762A33.144,33.144,0,0,0,3838.131,127.211Zm-15.517,12.127a2.757,2.757,0,0,1,0-5.494,2.757,2.757,0,0,1,0,5.494Zm9.033,0a2.757,2.757,0,1,1,2.524-2.747A2.653,2.653,0,0,1,3831.647,139.338Z" transform="translate(-3812.789 -124.613)" fill="#fff"/>
</svg>