<svg xmlns="http://www.w3.org/2000/svg" width="23.488" height="23.488" viewBox="0 0 23.488 23.488">
    <g transform="translate(-3815.498 -239.234)">
        <path d="M3827.242,241.35c3.136,0,3.507.012,4.745.069a6.493,6.493,0,0,1,2.181.4,3.888,3.888,0,0,1,2.229,2.229,6.482,6.482,0,0,1,.4,2.18c.057,1.239.069,1.61.069,4.746s-.012,3.507-.069,4.745a6.49,6.49,0,0,1-.4,2.181,3.9,3.9,0,0,1-2.229,2.229,6.493,6.493,0,0,1-2.181.4c-1.238.057-1.609.069-4.745.069s-3.507-.012-4.746-.069a6.487,6.487,0,0,1-2.18-.4,3.89,3.89,0,0,1-2.229-2.229,6.5,6.5,0,0,1-.4-2.181c-.057-1.238-.069-1.609-.069-4.745s.012-3.507.069-4.746a6.49,6.49,0,0,1,.4-2.18,3.882,3.882,0,0,1,2.229-2.229,6.487,6.487,0,0,1,2.18-.4c1.239-.057,1.61-.069,4.746-.069m0-2.116c-3.19,0-3.589.014-4.842.071a8.6,8.6,0,0,0-2.851.546,6,6,0,0,0-3.434,3.434,8.6,8.6,0,0,0-.546,2.851c-.057,1.253-.071,1.652-.071,4.842s.014,3.589.071,4.842a8.593,8.593,0,0,0,.546,2.85,6,6,0,0,0,3.434,3.435,8.627,8.627,0,0,0,2.851.546c1.253.057,1.652.071,4.842.071s3.589-.014,4.842-.071a8.624,8.624,0,0,0,2.85-.546,6.011,6.011,0,0,0,3.435-3.435,8.624,8.624,0,0,0,.546-2.85c.057-1.253.071-1.653.071-4.842s-.014-3.589-.071-4.842a8.63,8.63,0,0,0-.546-2.851,6.005,6.005,0,0,0-3.435-3.434,8.6,8.6,0,0,0-2.85-.546c-1.253-.057-1.653-.071-4.842-.071Z" fill="#fff"/>
        <path d="M3827.242,244.947a6.03,6.03,0,1,0,6.03,6.031A6.031,6.031,0,0,0,3827.242,244.947Zm0,9.945a3.914,3.914,0,1,1,3.914-3.914A3.915,3.915,0,0,1,3827.242,254.892Z" fill="#fff"/>
        <circle cx="1.409" cy="1.409" r="1.409" transform="translate(3832.101 243.3)" fill="#fff"/>
    </g>
</svg>