<svg id="Groupe_25" data-name="Groupe 25" xmlns="http://www.w3.org/2000/svg" width="117.156" height="125.25" viewBox="0 0 117.156 125.25">
  <defs>
    <style>
      .cls-1 {
        fill: #fff;
        fill-rule: evenodd;
      }
    </style>
  </defs>
  <g id="Groupe_22" data-name="Groupe 22">
    <path id="Tracé_61" data-name="Tracé 61" class="cls-1" d="M169.2,100.844H151.252a1.015,1.015,0,0,0-.858.472l-55.266,87.1a1.016,1.016,0,0,0,.858,1.561H113.1a1.017,1.017,0,0,0,.858-0.473l17.425-27.46a1.016,1.016,0,0,1,1.716,0l17.425,27.46a1.016,1.016,0,0,0,.858.473H169.2a1.016,1.016,0,0,0,1.016-1.017v-87.1A1.016,1.016,0,0,0,169.2,100.844Zm-27.05,44.231,7.407-11.672a0.617,0.617,0,0,1,1.139.331v23.174a0.618,0.618,0,0,1-1.137.334l-7.407-11.5A0.619,0.619,0,0,1,142.147,145.075Z" transform="translate(-93.594 -100.844)"/>
    <path id="Tracé_62" data-name="Tracé 62" class="cls-1" d="M191.218,100.844h-5.795a1.326,1.326,0,0,0-1.222.811l-7.108,16.868a1.326,1.326,0,0,0,1.222,1.841h11.577a1.326,1.326,0,0,1,1.326,1.326v66.958a1.327,1.327,0,0,0,1.326,1.327h16.868a1.327,1.327,0,0,0,1.326-1.327V102.17a1.326,1.326,0,0,0-1.326-1.326H191.218Z" transform="translate(-93.594 -100.844)"/>
  </g>
  <g id="Groupe_23" data-name="Groupe 23">
    <path id="Tracé_63" data-name="Tracé 63" class="cls-1" d="M109.211,225.613l-2.161-6.628H99.605l-2.161,6.628H93.589l6.95-20.439h5.577l6.949,20.439h-3.854Zm-8.5-9.986h5.227l-2.161-6.6-0.2-1.781h-0.5l-0.2,1.781Z" transform="translate(-93.594 -100.844)"/>
    <path id="Tracé_64" data-name="Tracé 64" class="cls-1" d="M128.921,211.335a6.32,6.32,0,0,1-.788,3.212,6.477,6.477,0,0,1-5.9,2.978h-4.03v8.088h-3.62V205.174h7.65c2.686,0,4.847,1.08,5.9,2.949A6.315,6.315,0,0,1,128.921,211.335Zm-3.679,0a3.2,3.2,0,0,0-.379-1.548,3.081,3.081,0,0,0-2.8-1.314h-3.855V214.2h3.855a3.081,3.081,0,0,0,2.8-1.314A3.205,3.205,0,0,0,125.242,211.335Z" transform="translate(-93.594 -100.844)"/>
    <path id="Tracé_65" data-name="Tracé 65" class="cls-1" d="M130.7,225.613V205.174h12.263v3.386h-8.643V213.7h8.351v3.33h-8.351v5.2h8.643v3.387H130.7Z" transform="translate(-93.594 -100.844)"/>
  </g>
  <g id="Groupe_24" data-name="Groupe 24">
    <path id="Tracé_66" data-name="Tracé 66" class="cls-1" d="M156.222,219.6a12.96,12.96,0,0,1,0-8.409c1.46-3.971,5.021-6.482,9.781-6.482s8.322,2.511,9.781,6.482a12.96,12.96,0,0,1,0,8.409c-1.43,3.942-4.963,6.482-9.752,6.482C161.331,226.08,157.682,223.657,156.222,219.6Zm15.971-1.227a9.171,9.171,0,0,0,0-5.956,6.594,6.594,0,0,0-12.38,0,9.171,9.171,0,0,0,0,5.956A6.594,6.594,0,0,0,172.193,218.371Z" transform="translate(-93.594 -100.844)"/>
    <path id="Tracé_67" data-name="Tracé 67" class="cls-1" d="M178.648,225.613V205.174h5.489l6.278,13.752,0.672,4.322h0.5V205.174h3.445v20.439h-5.489l-6.307-13.753-0.642-4.321h-0.5v18.074h-3.445Z" transform="translate(-93.594 -100.844)"/>
    <path id="Tracé_68" data-name="Tracé 68" class="cls-1" d="M198.475,225.613V205.174h12.263v3.386H202.1V213.7h8.351v3.33H202.1v5.2h8.642v3.387H198.475Z" transform="translate(-93.594 -100.844)"/>
  </g>
</svg>
