<svg width="52" height="44" viewBox="0 0 52 44" fill="none" xmlns="http://www.w3.org/2000/svg">
<path d="M35.715 43.7V39.8C35.715 29.855 42.215 25.37 51.77 25.37V21.73C42.215 21.73 35.715 17.245 35.715 7.3V3.4H32.595V7.3C32.595 14.71 35.585 19.455 41.825 21.34V22.055H13.485C7.375 22.055 3.54 18.74 3.54 12.63C3.54 6.325 7.375 3.14 13.485 3.14H26.03V0.214999H13.42C5.62 0.214999 0.355 4.57 0.355 12.63C0.355 20.625 5.62 25.045 13.42 25.045H41.825V25.76C35.585 27.58 32.595 32.39 32.595 39.8V43.7H35.715Z" fill="white"/>
</svg>
