<svg xmlns="http://www.w3.org/2000/svg" width="24.11" height="24.11" viewBox="0 0 24.11 24.11">
    <path d="M3827.242,161.469a12.055,12.055,0,1,0,12.055,12.055A12.056,12.056,0,0,0,3827.242,161.469Zm-6.107,12.46.05-.082,3.137-4.906a.108.108,0,0,1,.188.014,6.684,6.684,0,0,1,.764,3.545,5.421,5.421,0,0,1-.617,1.347c-.036.068-.075.135-.118.2a.106.106,0,0,1-.089.046h-3.224A.107.107,0,0,1,3821.135,173.929Zm13.976,1.688a.108.108,0,0,1-.065.1,3.868,3.868,0,0,0-1.42.967c-.882,1.227-1.555,2.983-3.062,2.983h-6.283a4.037,4.037,0,0,1-4.031-4.046v-.072a.108.108,0,0,1,.108-.107h3.5a.121.121,0,0,1,.116.133,1.176,1.176,0,0,0,.125.673,1.231,1.231,0,0,0,1.1.684h1.733v-1.352h-1.714a.111.111,0,0,1-.089-.174c.019-.029.038-.058.062-.091.162-.232.393-.589.625-1a8.175,8.175,0,0,0,.431-.863c.024-.053.044-.109.065-.162.034-.094.068-.183.092-.27s.046-.152.065-.224a3.522,3.522,0,0,0,.082-.791c0-.108,0-.222-.014-.328s-.02-.236-.034-.354-.029-.208-.048-.314c-.027-.156-.061-.313-.1-.47l-.015-.06c-.029-.109-.055-.21-.089-.318-.1-.338-.21-.668-.33-.977-.044-.123-.092-.241-.142-.357-.073-.178-.147-.34-.215-.491-.036-.07-.065-.133-.094-.2s-.068-.145-.1-.215c-.024-.053-.053-.1-.072-.152l-.212-.39a.069.069,0,0,1,.077-.1l1.326.359h.01l.173.05.193.053.07.02v-.786a.685.685,0,0,1,.682-.69.662.662,0,0,1,.48.2.692.692,0,0,1,.2.487v1.169l.143.039a.2.2,0,0,1,.031.017c.034.024.084.062.147.11s.1.087.166.138c.128.1.282.236.449.388.043.039.087.077.128.118.214.2.455.434.687.695.065.074.127.147.193.226s.132.157.19.234c.08.1.162.212.236.326.034.053.075.108.106.161a4.566,4.566,0,0,1,.258.437c.034.067.068.142.1.214a2.991,2.991,0,0,1,.2.6.664.664,0,0,1,.029.133V172a.985.985,0,0,1,.024.185,2.058,2.058,0,0,1-.033.62c-.02.087-.044.169-.073.258s-.06.171-.1.256a3.356,3.356,0,0,1-.265.5c-.034.061-.075.123-.113.184s-.089.123-.128.18c-.055.075-.113.152-.173.222a2.462,2.462,0,0,1-.167.21c-.082.1-.161.191-.246.28a2.124,2.124,0,0,1-.156.171c-.054.06-.109.113-.157.161-.085.085-.152.148-.21.2l-.137.123a.105.105,0,0,1-.073.029H3828.3v1.352h1.329a1.231,1.231,0,0,0,.807-.3,9.413,9.413,0,0,0,.82-.805.1.1,0,0,1,.051-.031l3.667-1.061a.107.107,0,0,1,.137.1v.776Z" transform="translate(-3815.187 -161.469)" fill="#fff"/>
</svg>