<svg xmlns="http://www.w3.org/2000/svg" width="26.478" height="21.518" viewBox="0 0 26.478 21.518">
    <g transform="translate(-3814.003 -201.648)">
        <path d="M3822.33,223.166a15.351,15.351,0,0,0,15.456-15.456q0-.353-.015-.7a11.049,11.049,0,0,0,2.71-2.813,10.848,10.848,0,0,1-3.12.855,5.453,5.453,0,0,0,2.389-3.005,10.9,10.9,0,0,1-3.45,1.319,5.437,5.437,0,0,0-9.257,4.954,15.422,15.422,0,0,1-11.2-5.676,5.436,5.436,0,0,0,1.682,7.252,5.39,5.39,0,0,1-2.461-.679c0,.023,0,.045,0,.069a5.433,5.433,0,0,0,4.359,5.325,5.412,5.412,0,0,1-2.454.094,5.439,5.439,0,0,0,5.075,3.773,10.9,10.9,0,0,1-6.747,2.325,11.1,11.1,0,0,1-1.3-.075,15.377,15.377,0,0,0,8.327,2.44" fill="#fff"/>
    </g>
</svg>	